<svg width="512" height="512" viewBox="0 0 512 512" fill="none" xmlns="http://www.w3.org/2000/svg">
    <defs>
        <linearGradient id="bgGradient" x1="0" y1="0" x2="512" y2="512" gradientUnits="userSpaceOnUse">
            <stop stop-color="#4FACFE"/>
            <stop offset="1" stop-color="#00F2FE"/>
        </linearGradient>
        <filter id="dropShadow" x="-20%" y="-20%" width="140%" height="140%">
            <feDropShadow dx="0" dy="4" stdDeviation="8" flood-color="#000" flood-opacity="0.15"/>
        </filter>
    </defs>

    <circle cx="256" cy="256" r="240" fill="url(#bgGradient)"/>

    <g transform="translate(290, 180)">
        <circle cx="0" cy="0" r="50" fill="#FFD700"/>
        <g stroke="#FFD700" stroke-width="8" stroke-linecap="round">
            <line x1="0" y1="-70" x2="0" y2="-60"/>
            <line x1="50" y1="-50" x2="42" y2="-42"/>
            <line x1="70" y1="0" x2="60" y2="0"/>
            <line x1="50" y1="50" x2="42" y2="42"/>
            <line x1="0" y1="70" x2="0" y2="60"/>
            <line x1="-50" y1="50" x2="-42" y2="42"/>
            <line x1="-70" y1="0" x2="-60" y2="0"/>
            <line x1="-50" y1="-50" x2="-42" y2="-42"/>
        </g>
    </g>

    <path d="M186 330H346C379.137 330 406 303.137 406 270C406 238.62 381.99 212.87 351.258 210.3C346.541 163.654 307.26 128 260 128C216.712 128 180.176 157.99 171.494 198.98C145.438 205.152 126 228.625 126 256C126 296.869 152.863 330 186 330Z"
          fill="white" filter="url(#dropShadow)"/>

    <path d="M280 300L240 360H270L250 420L310 340H270L280 300Z" fill="#FFD700" stroke="white" stroke-width="4"
          stroke-linejoin="round"/>
</svg>